<svg width="22" height="23" viewBox="0 0 22 23" fill="none" xmlns="http://www.w3.org/2000/svg">
<path d="M11 11.5H10.25C10.25 11.8228 10.4566 12.1094 10.7628 12.2115L11 11.5ZM11.75 6.5C11.75 6.08579 11.4142 5.75 11 5.75C10.5858 5.75 10.25 6.08579 10.25 6.5H11.75ZM13.7628 13.2115C14.1558 13.3425 14.5805 13.1301 14.7115 12.7372C14.8425 12.3442 14.6301 11.9195 14.2372 11.7885L13.7628 13.2115ZM11.75 11.5V6.5H10.25V11.5H11.75ZM10.7628 12.2115L13.7628 13.2115L14.2372 11.7885L11.2372 10.7885L10.7628 12.2115ZM20.25 11.5C20.25 16.6086 16.1086 20.75 11 20.75V22.25C16.9371 22.25 21.75 17.4371 21.75 11.5H20.25ZM11 20.75C5.89137 20.75 1.75 16.6086 1.75 11.5H0.25C0.25 17.4371 5.06294 22.25 11 22.25V20.75ZM1.75 11.5C1.75 6.39137 5.89137 2.25 11 2.25V0.75C5.06294 0.75 0.25 5.56294 0.25 11.5H1.75ZM11 2.25C16.1086 2.25 20.25 6.39137 20.25 11.5H21.75C21.75 5.56294 16.9371 0.75 11 0.75V2.25Z" fill="white"/>
</svg>
