<svg width="24" height="24" viewBox="0 0 24 24" fill="none" xmlns="http://www.w3.org/2000/svg">
<path d="M12.0007 0.333252C8.48709 0.333252 5.35499 1.91487 3.21647 4.38241L0.333984 1.49992V8.49992H7.33398L4.8571 6.02303C6.56987 3.97856 9.1302 2.66659 12.0007 2.66659C17.1468 2.66659 21.334 6.85375 21.334 11.9999C21.334 17.1461 17.1468 21.3333 12.0007 21.3333C6.85449 21.3333 2.66732 17.1461 2.66732 11.9999H0.333984C0.333984 18.4329 5.56765 23.6666 12.0007 23.6666C18.4337 23.6666 23.6673 18.4329 23.6673 11.9999C23.6673 5.56692 18.4337 0.333252 12.0007 0.333252ZM10.834 4.99992V12.483L14.6758 16.3248L16.3255 14.675L13.1673 11.5168V4.99992H10.834Z" fill="#9CA4AB"/>
</svg>
